<svg xmlns="http://www.w3.org/2000/svg" viewBox="0 0 64 64"><path d="M20 58h24l-3-9H23z" fill="#fdfcfa" stroke="#141413" stroke-width="1.5" paint-order="stroke"/><path d="M24 49l-1.5-17h19L40 49z" fill="#fdfcfa" stroke="#141413" stroke-width="1.5" paint-order="stroke"/><path d="M22.5 32c-2-6-1-11 3-14-2-2-3-5-2-8 3 1 5 3 6 6 1-3 3-5 6-6 1 3 0 6-2 8 4 3 5 8 3 14z" fill="#fdfcfa" stroke="#141413" stroke-width="1.5" paint-order="stroke"/><path d="M30 6h4v13h-4z" fill="#fdfcfa" stroke="#141413" stroke-width="1.5" paint-order="stroke"/><path d="M25.5 10.5h13v4h-13z" fill="#fdfcfa" stroke="#141413" stroke-width="1.5" paint-order="stroke"/></svg>
